<svg width="400" height="500" viewBox="0 0 400 500" fill="none" xmlns="http://www.w3.org/2000/svg">
<rect width="400" height="500" fill="url(#paint0_linear_4078_324)"/>
<path d="M160.521 125.5C159.117 125.5 157.751 125.661 156.44 125.965C149.776 127.509 144.53 132.755 142.986 139.419C142.681 140.73 142.521 142.096 142.521 143.5C142.521 153.441 150.579 161.5 160.521 161.5C161.924 161.5 163.29 161.339 164.601 161.035C171.265 159.491 176.511 154.246 178.056 147.582C178.361 146.271 178.521 144.904 178.521 143.5C178.521 133.559 170.462 125.5 160.521 125.5ZM160.521 154.772C159.192 154.772 157.917 154.543 156.734 154.12C153.555 152.987 151.035 150.467 149.901 147.287C149.478 146.104 149.249 144.829 149.249 143.5C149.249 137.274 154.295 132.228 160.521 132.228C161.849 132.228 163.124 132.457 164.307 132.88C167.486 134.013 170.007 136.533 171.141 139.713C171.563 140.896 171.793 142.171 171.793 143.5C171.793 149.726 166.746 154.772 160.521 154.772Z" fill="url(#paint1_linear_4078_324)"/>
<path d="M160.52 136.235C156.508 136.235 153.255 139.488 153.255 143.5C153.255 147.512 156.508 150.765 160.52 150.765C164.532 150.765 167.785 147.512 167.785 143.5C167.785 139.488 164.533 136.235 160.52 136.235ZM160.52 147.893C158.095 147.893 156.128 145.926 156.128 143.5C156.128 141.074 158.095 139.107 160.52 139.107C162.946 139.107 164.913 141.074 164.913 143.5C164.913 145.926 162.947 147.893 160.52 147.893Z" fill="#FEFCFE"/>
<path d="M164.307 132.88C163.123 132.457 161.849 132.228 160.52 132.228C154.295 132.228 149.249 137.275 149.249 143.5C149.249 144.829 149.478 146.104 149.901 147.287C148.462 146.744 147.113 145.893 145.955 144.735C144.436 143.216 143.446 141.368 142.986 139.419C144.53 132.755 149.775 127.51 156.44 125.965C158.388 126.426 160.236 127.416 161.755 128.935C162.913 130.093 163.763 131.441 164.307 132.88Z" fill="url(#paint2_linear_4078_324)"/>
<path d="M178.056 147.582C176.511 154.246 171.265 159.491 164.601 161.035C162.654 160.574 160.806 159.584 159.286 158.065C158.128 156.907 157.277 155.558 156.734 154.121C157.917 154.543 159.192 154.772 160.52 154.772C166.746 154.772 171.793 149.726 171.793 143.5C171.793 142.171 171.563 140.896 171.141 139.713C172.579 140.256 173.927 141.107 175.085 142.265C176.605 143.785 177.595 145.634 178.056 147.582Z" fill="url(#paint3_linear_4078_324)"/>
<path d="M151.617 156.171C153.697 156.171 155.384 154.485 155.384 152.404C155.384 150.324 153.697 148.637 151.617 148.637C149.536 148.637 147.85 150.324 147.85 152.404C147.85 154.485 149.536 156.171 151.617 156.171Z" fill="url(#paint4_linear_4078_324)"/>
<path d="M169.458 138.331C171.538 138.331 173.225 136.644 173.225 134.563C173.225 132.483 171.538 130.796 169.458 130.796C167.377 130.796 165.69 132.483 165.69 134.563C165.69 136.644 167.377 138.331 169.458 138.331Z" fill="url(#paint5_linear_4078_324)"/>
<path d="M257.281 140.109V142.097H251.01V140.109H257.281ZM252.558 137.495H255.129V147.737C255.129 148.082 255.181 148.347 255.285 148.532C255.394 148.712 255.536 148.835 255.711 148.901C255.886 148.968 256.081 149.001 256.294 149.001C256.455 149.001 256.601 148.989 256.734 148.965C256.871 148.942 256.975 148.92 257.046 148.901L257.48 150.911C257.342 150.959 257.146 151.011 256.89 151.068C256.639 151.124 256.331 151.158 255.967 151.167C255.323 151.186 254.743 151.089 254.227 150.876C253.711 150.658 253.301 150.322 252.998 149.867C252.7 149.413 252.553 148.845 252.558 148.163V137.495Z" fill="#D4D4D8"/>
<path d="M246.619 151.018V140.109H249.19V151.018H246.619ZM247.911 138.56C247.504 138.56 247.154 138.425 246.86 138.155C246.566 137.881 246.42 137.552 246.42 137.168C246.42 136.78 246.566 136.451 246.86 136.181C247.154 135.906 247.504 135.769 247.911 135.769C248.323 135.769 248.673 135.906 248.962 136.181C249.256 136.451 249.403 136.78 249.403 137.168C249.403 137.552 249.256 137.881 248.962 138.155C248.673 138.425 248.323 138.56 247.911 138.56Z" fill="#D4D4D8"/>
<path d="M234.135 151.018V136.472H236.706V141.913H236.812C236.945 141.647 237.132 141.366 237.373 141.067C237.615 140.764 237.941 140.506 238.353 140.293C238.765 140.075 239.291 139.966 239.93 139.966C240.773 139.966 241.533 140.182 242.21 140.613C242.892 141.039 243.431 141.671 243.829 142.509C244.232 143.342 244.433 144.365 244.433 145.577C244.433 146.775 244.236 147.793 243.843 148.631C243.45 149.469 242.915 150.109 242.238 150.549C241.561 150.989 240.794 151.209 239.937 151.209C239.312 151.209 238.794 151.105 238.382 150.897C237.97 150.689 237.638 150.438 237.387 150.144C237.141 149.846 236.949 149.564 236.812 149.299H236.663V151.018H234.135ZM236.656 145.563C236.656 146.269 236.755 146.886 236.954 147.417C237.158 147.947 237.449 148.361 237.828 148.66C238.211 148.953 238.675 149.1 239.22 149.1C239.788 149.1 240.264 148.948 240.647 148.645C241.031 148.338 241.32 147.919 241.514 147.388C241.713 146.853 241.812 146.245 241.812 145.563C241.812 144.886 241.715 144.285 241.521 143.759C241.327 143.234 241.038 142.822 240.654 142.523C240.271 142.225 239.793 142.076 239.22 142.076C238.671 142.076 238.204 142.22 237.821 142.509C237.437 142.798 237.146 143.203 236.947 143.724C236.753 144.244 236.656 144.858 236.656 145.563Z" fill="#D4D4D8"/>
<path d="M226.091 151.017V140.108H228.584V141.927H228.698C228.897 141.297 229.238 140.812 229.721 140.471C230.208 140.125 230.765 139.952 231.39 139.952C231.532 139.952 231.69 139.959 231.865 139.973C232.045 139.983 232.195 139.999 232.313 140.023V142.388C232.204 142.35 232.031 142.317 231.794 142.289C231.562 142.256 231.338 142.239 231.12 142.239C230.651 142.239 230.23 142.341 229.856 142.544C229.486 142.743 229.195 143.02 228.982 143.375C228.769 143.731 228.662 144.14 228.662 144.604V151.017H226.091Z" fill="#D4D4D8"/>
<path d="M218.682 151.231C217.617 151.231 216.693 150.996 215.912 150.527C215.131 150.059 214.525 149.403 214.094 148.56C213.668 147.717 213.455 146.732 213.455 145.606C213.455 144.479 213.668 143.491 214.094 142.644C214.525 141.796 215.131 141.138 215.912 140.669C216.693 140.201 217.617 139.966 218.682 139.966C219.747 139.966 220.67 140.201 221.452 140.669C222.233 141.138 222.837 141.796 223.263 142.644C223.694 143.491 223.909 144.479 223.909 145.606C223.909 146.732 223.694 147.717 223.263 148.56C222.837 149.403 222.233 150.059 221.452 150.527C220.67 150.996 219.747 151.231 218.682 151.231ZM218.696 149.171C219.274 149.171 219.757 149.012 220.145 148.695C220.533 148.373 220.822 147.942 221.011 147.402C221.206 146.863 221.303 146.261 221.303 145.598C221.303 144.931 221.206 144.327 221.011 143.787C220.822 143.243 220.533 142.81 220.145 142.488C219.757 142.166 219.274 142.005 218.696 142.005C218.104 142.005 217.612 142.166 217.219 142.488C216.831 142.81 216.539 143.243 216.345 143.787C216.156 144.327 216.061 144.931 216.061 145.598C216.061 146.261 216.156 146.863 216.345 147.402C216.539 147.942 216.831 148.373 217.219 148.695C217.612 149.012 218.104 149.171 218.696 149.171Z" fill="#D4D4D8"/>
<path d="M209.706 151.174C209.275 151.174 208.906 151.022 208.598 150.719C208.29 150.416 208.139 150.047 208.144 149.611C208.139 149.185 208.29 148.821 208.598 148.518C208.906 148.215 209.275 148.063 209.706 148.063C210.123 148.063 210.485 148.215 210.793 148.518C211.105 148.821 211.264 149.185 211.269 149.611C211.264 149.9 211.188 150.163 211.041 150.4C210.899 150.636 210.71 150.826 210.473 150.968C210.241 151.105 209.986 151.174 209.706 151.174Z" fill="#D4D4D8"/>
<path d="M198.506 144.625V151.017H195.935V140.108H198.392V141.962H198.52C198.771 141.351 199.171 140.866 199.721 140.506C200.275 140.146 200.959 139.966 201.773 139.966C202.526 139.966 203.182 140.127 203.74 140.449C204.304 140.771 204.74 141.238 205.047 141.848C205.36 142.459 205.514 143.2 205.509 144.071V151.017H202.938V144.469C202.938 143.74 202.749 143.169 202.37 142.758C201.996 142.346 201.477 142.14 200.814 142.14C200.365 142.14 199.964 142.239 199.614 142.438C199.268 142.632 198.996 142.914 198.797 143.283C198.603 143.652 198.506 144.1 198.506 144.625Z" fill="#D4D4D8"/>
<path d="M190.72 151.018V140.109H193.291V151.018H190.72ZM192.013 138.56C191.606 138.56 191.255 138.425 190.962 138.155C190.668 137.881 190.521 137.552 190.521 137.168C190.521 136.78 190.668 136.451 190.962 136.181C191.255 135.906 191.606 135.769 192.013 135.769C192.425 135.769 192.775 135.906 193.064 136.181C193.357 136.451 193.504 136.78 193.504 137.168C193.504 137.552 193.357 137.881 193.064 138.155C192.775 138.425 192.425 138.56 192.013 138.56Z" fill="#D4D4D8"/>
<path d="M205.723 315.332C205.524 312.993 205.45 310.645 205.502 308.297C205.502 308.102 205.214 308.05 205.191 308.297C204.942 310.65 204.968 313.023 205.267 315.37C205.272 315.43 205.301 315.485 205.347 315.523C205.393 315.562 205.453 315.581 205.514 315.576C205.574 315.571 205.63 315.543 205.669 315.497C205.709 315.451 205.728 315.392 205.723 315.332ZM202.28 314.455C202.294 314.485 202.316 314.511 202.345 314.529C202.373 314.547 202.406 314.557 202.44 314.557C202.473 314.557 202.506 314.547 202.535 314.529C202.563 314.511 202.585 314.485 202.599 314.455C202.493 312.092 202.394 309.722 202.288 307.352C202.288 307.313 202.272 307.274 202.243 307.246C202.215 307.218 202.176 307.202 202.136 307.202C202.095 307.202 202.057 307.218 202.028 307.246C202 307.274 201.984 307.313 201.984 307.352C201.882 309.142 201.903 310.936 202.044 312.722C202.049 313.307 202.129 313.889 202.28 314.455ZM222.2 314.755C222.274 315.913 222.143 317.076 221.812 318.19C221.812 318.362 222.321 319.315 222.64 316.577C222.841 314.728 222.45 312.864 221.523 311.245C221.424 311.065 221.166 311.245 221.25 311.402C221.776 312.452 222.098 313.589 222.2 314.755ZM212.988 260.537C212.983 261.102 213.177 261.651 213.536 262.09C213.992 262.495 214.698 260.92 216.819 260.672V258.647C215.339 258.754 213.963 259.434 212.988 260.537ZM232.969 314.71C232.969 313.165 232.832 311.627 232.802 310.082C232.802 309.872 232.475 309.917 232.475 310.127C232.475 311.725 232.475 313.337 232.543 314.942C232.574 316 232.992 315.61 232.969 314.71ZM218.24 258.61L218.286 260.635C220.908 260.725 221.668 262.675 221.949 262.067C222.07 261.79 222.564 260.402 222.298 260.162C221.183 259.174 219.739 258.622 218.24 258.61ZM163.695 246.437C163.3 246.647 163.695 247.57 164.006 247.367C164.318 247.165 164.128 246.19 163.695 246.437ZM163.193 244.18C162.661 244.232 162.646 244.772 163.193 244.84C163.59 244.87 163.974 244.988 164.318 245.185C164.523 245.32 164.744 245.05 164.622 244.862C164.465 244.635 164.251 244.452 164 244.332C163.749 244.213 163.471 244.16 163.193 244.18ZM161.833 246.82C162.036 247.346 162.196 247.888 162.312 248.44C162.441 249.085 162.433 249.257 162.403 249.295C162.28 249.299 162.158 249.314 162.038 249.34C161.818 249.415 161.818 249.692 162.16 249.85C162.252 249.896 162.357 249.914 162.46 249.9C162.563 249.887 162.66 249.843 162.737 249.775C163.132 249.4 162.965 248.342 162.251 246.632C162.226 246.578 162.179 246.535 162.122 246.514C162.065 246.493 162.002 246.495 161.947 246.52C161.891 246.545 161.848 246.59 161.827 246.647C161.805 246.703 161.808 246.765 161.833 246.82Z" fill="#27272A"/>
<path d="M271.987 337.165H261.203C262.198 331.915 256.286 328.217 252.607 330.152C252.23 328.333 251.192 326.713 249.689 325.596C248.186 324.478 246.321 323.941 244.445 324.085C244.245 322.796 243.751 321.569 243 320.496C242.25 319.423 241.263 318.532 240.113 317.89C239.756 313.69 239.915 309.415 239.923 305.267C240.569 305.312 242.119 305.455 241.868 304.847C241.108 302.987 239.809 299.882 238.828 298.097C239.224 298.097 239.672 298.097 239.672 297.7C239.794 290.5 240.029 275.395 240.029 275.395C240.151 266.455 240.455 256.18 234.094 248.822C233.896 248.59 233.622 248.507 233.448 248.747C230.86 252.363 229.158 256.522 228.477 260.897C228.219 256.622 227.877 251.792 227.208 247.015C226.068 238.907 223.317 233.462 218.848 230.23C218.422 229.922 217.799 229.427 217.518 229.622C210.541 234.497 208.489 243.002 208.003 249.28C207.828 251.95 207.775 254.657 207.843 257.342C206.908 253.9 203.701 247.18 202.523 248.8C197.036 256.555 197.5 266.575 197.963 275.417C198.723 292.262 198.951 296.605 199.05 297.737C199.05 298.105 199.05 298.352 200.099 298.24C197.887 304.022 197.431 304.99 197.629 305.155C197.826 305.32 198.609 305.267 198.989 305.245C198.936 307.772 199.544 320.057 199.46 320.71C198.909 321.373 198.465 322.117 198.146 322.915C196.85 323.263 195.648 323.887 194.623 324.744C193.599 325.6 192.778 326.668 192.218 327.872C191.207 327.775 190.187 327.94 189.261 328.352C188.349 318.37 186.48 303.28 184.192 293.23C188.106 293.732 189.976 292 190.88 290.5C193.16 286.577 191.64 280.06 188.813 276.452C186.42 271.428 182.91 267.001 178.545 263.5C179.009 262.63 177.785 258.677 174.677 257.05C173.347 256.352 171.576 256.3 170.763 255.55C169.022 253.87 170.193 249.4 166.568 248.23C166.333 246.381 165.944 244.555 165.405 242.77C169.965 240.835 169.729 235.6 167.039 234.115C164.531 232.735 163.148 234.692 161.498 235.24C159.218 235.99 157.28 234.37 154.286 234.37C148.639 234.37 147.302 239.98 147.005 240.257C146.709 240.535 146.595 242.117 144.079 243.092C141.404 244.12 137.999 244.18 136.548 247.285C135.316 250 137.68 253.315 136.054 255.827C135.104 257.327 131.691 257.417 129.214 261.34C126.561 265.517 127.45 271.187 131.106 273.542C127.96 280.517 128.104 287.935 131.478 292.93C134.564 297.482 139.595 299.192 145.06 299.05C144.786 311.755 144.9 324.422 144.216 337.21C141.746 337.21 139.268 337.262 136.844 337.307C136.776 337.307 136.71 337.334 136.661 337.382C136.613 337.43 136.586 337.495 136.586 337.562C136.586 337.63 136.613 337.695 136.661 337.743C136.71 337.79 136.776 337.817 136.844 337.817C139.01 337.862 141.571 337.907 144.17 337.907C143.752 345.355 143.19 352.907 142.498 360.31C142.43 361.06 144.208 361.015 144.961 361.06C144.753 362.102 144.674 363.164 144.725 364.225C144.148 364.727 143.304 368.162 143.35 368.8C143.35 368.935 143.41 369.017 143.502 369.032C144.338 369.167 156.969 369.782 157.554 369.1C157.569 369.073 157.576 369.044 157.576 369.014C157.576 368.983 157.569 368.954 157.554 368.927C156.71 366.677 153.754 364.78 151.337 364.165L151.991 361.292C152.492 361.292 153.511 361.367 153.655 361.105C157.052 353.545 160.146 345.737 162.844 337.915H173.894C175.999 344.583 177.857 351.325 179.465 358.127C180.111 360.872 179.662 360.722 181.456 360.805C181.448 361.874 181.578 362.94 181.844 363.977C181.261 365.331 180.909 366.77 180.802 368.237C180.788 368.262 180.78 368.291 180.78 368.32C180.78 368.349 180.788 368.377 180.802 368.402C181.281 369.002 194.923 369.505 195.858 368.957C196.618 368.477 192.453 364.495 188.76 363.76C188.813 362.802 188.79 361.842 188.691 360.887C189.337 360.887 190.827 361.06 190.827 360.43C190.827 353.35 190.584 345.767 190.067 337.93H272.01C272.113 337.927 272.21 337.884 272.281 337.81C272.351 337.736 272.389 337.638 272.386 337.536C272.383 337.435 272.34 337.339 272.265 337.269C272.19 337.199 272.09 337.162 271.987 337.165ZM169.045 323.785C170.938 328.922 171.948 332.117 173.658 337.232H163.072C164.918 331.84 167.472 323.732 169.152 316.915C169.722 314.665 170.869 315.617 170.451 317.447C169.965 319.705 169.022 323.732 169.045 323.785ZM188.22 363.835C186.92 364.42 183.66 364.382 182.391 364.022C182.307 362.95 182.087 361.877 182.072 360.805L188.045 360.872C188.098 361.862 188.159 362.845 188.22 363.835ZM145.66 299.042C152.044 298.727 159.636 295.847 165.99 291.325C166.127 291.227 166.248 291.205 166.286 291.077C166.324 290.95 166.286 290.845 166.058 290.522C167.843 289.698 169.717 289.076 171.644 288.67C172.404 288.535 174.631 288.115 175.034 286.922L176.691 286.877C178.287 290.14 180.825 292.405 183.668 293.11L185.188 302.027C172.632 306.295 161.172 307.202 145.706 305.125C145.759 303.107 145.766 301.06 145.683 299.042H145.66ZM165.58 253.33C164.516 256.052 162.296 256.165 162.654 256.81V257.042C162.798 258.235 163.079 260.687 161.134 262.42C157.85 261.13 155.814 259.645 154.294 257.485C154.613 256.937 154.294 254.545 154.294 254.522C153.822 252.077 151.664 251.582 152.15 249.37C152.219 249.047 152.318 248.86 152.447 248.8C152.872 248.612 153.967 250.06 154.195 248.38C154.552 245.98 155.236 244.127 157.645 243.452C159.88 242.83 162.038 243.895 164.926 242.912C165.58 245.582 166.704 250.412 165.58 253.33ZM161.248 263.08C162.562 262.757 163.687 259.57 163.414 257.785C165.465 258.071 167.485 258.543 169.448 259.195C176.592 261.707 182.794 267.077 186.981 274.367C184.124 271.667 180.384 270.145 177.002 270.355C175.924 268.611 174.685 266.969 173.301 265.45C173.281 265.427 173.255 265.409 173.227 265.397C173.199 265.385 173.169 265.378 173.138 265.378C173.107 265.378 173.077 265.385 173.049 265.397C173.02 265.409 172.995 265.427 172.974 265.45C172.953 265.471 172.935 265.496 172.923 265.524C172.912 265.551 172.906 265.581 172.906 265.611C172.906 265.641 172.912 265.671 172.923 265.699C172.935 265.726 172.953 265.751 172.974 265.772C174.189 267.262 175.308 268.825 176.326 270.452C175.319 270.602 174.348 270.933 173.461 271.427C173.317 271.441 173.175 271.466 173.035 271.502C172.618 271.595 172.193 271.653 171.766 271.675C169.988 271.675 169.919 270.925 169.281 271.007C168.012 271.135 168.384 273.61 171.302 274.135C170.778 275.582 170.542 278.77 171.523 280.135C170.352 280.135 169.6 279.895 169.554 281.072C169.539 281.285 169.539 281.498 169.554 281.71C169.178 281.471 168.751 281.318 168.306 281.263C167.862 281.209 167.41 281.254 166.986 281.395C166.188 281.695 164.668 283.262 163.9 283.915C163.9 283.6 163.9 283.12 163.619 283.09C158.793 282.692 151.459 282.58 147.066 282.7C146.825 279.64 146.866 276.565 147.188 273.512C147.201 273.45 147.188 273.384 147.153 273.331C147.117 273.278 147.061 273.24 146.998 273.227C146.934 273.214 146.868 273.227 146.814 273.262C146.76 273.297 146.722 273.352 146.709 273.415C146.466 274.765 145.994 280.27 146.488 282.722L140.264 283.127C140.218 283.132 140.175 283.15 140.139 283.179C140.104 283.208 140.078 283.247 140.066 283.291C140.053 283.335 140.055 283.382 140.07 283.425C140.085 283.468 140.113 283.505 140.15 283.532C140.172 283.551 140.197 283.565 140.225 283.573C140.252 283.581 140.281 283.582 140.31 283.577C147.983 283.114 155.679 283.164 163.345 283.727C163.381 286.261 164.154 288.732 165.572 290.845C155.434 298.052 138.752 302.762 131.942 292.547C127.04 285.25 129.472 272.5 138.562 264.715C142.903 261.041 148.186 258.618 153.83 257.71C155.206 260.297 160.252 263.305 161.24 263.065L161.248 263.08ZM172.511 272.17C172.124 272.573 171.798 273.031 171.546 273.527C170.124 273.317 169.319 272.582 169.182 271.975C169.076 271.555 169.326 271.382 169.851 271.735C170.676 272.132 171.6 272.283 172.511 272.17ZM176.204 276.302C176.166 276.346 176.143 276.401 176.14 276.459C176.136 276.517 176.152 276.574 176.185 276.622C176.218 276.67 176.266 276.706 176.322 276.724C176.378 276.742 176.438 276.742 176.493 276.722C177.109 276.482 177.398 276.535 177.443 276.647C177.489 276.76 177.246 277.315 176.752 277.555C176.432 277.712 175.817 277.855 175.346 277.007C174.958 276.317 175.619 275.56 175.346 275.402C175.072 275.245 174.297 276.407 174.958 277.427C174.821 277.526 174.658 277.583 174.489 277.589C174.32 277.596 174.152 277.553 174.008 277.465C173.674 277.21 173.446 276.497 173.833 275.215C173.978 274.72 173.126 274.592 173.02 276.715C172.974 277.007 172.648 278.807 172.549 279.415C172.45 280.022 172.313 280.067 172.298 280.075C172.283 280.082 172.214 280.075 172.154 279.992C171.614 279.392 170.968 276.34 172.002 273.992C172.323 273.201 172.872 272.519 173.581 272.031C174.29 271.544 175.128 271.271 175.992 271.247C176.5 271.238 177.003 271.349 177.458 271.573C177.912 271.796 178.306 272.125 178.604 272.531C178.903 272.937 179.098 273.408 179.172 273.904C179.246 274.4 179.198 274.906 179.032 275.38C178.95 275.632 178.811 275.862 178.625 276.053C178.439 276.244 178.212 276.391 177.96 276.482C177.873 276.336 177.753 276.212 177.608 276.12C177.464 276.028 177.299 275.971 177.128 275.953C176.958 275.936 176.785 275.958 176.624 276.019C176.464 276.08 176.32 276.177 176.204 276.302ZM170.611 282.655C170.518 282.396 170.338 282.177 170.102 282.032L170.193 280.817H173.795C173.795 281.222 173.909 282.415 173.909 282.415C172.806 282.42 171.703 282.5 170.611 282.655ZM172.967 280.142C173.168 279.323 173.312 278.491 173.4 277.652C173.647 277.918 173.983 278.087 174.346 278.128C174.708 278.169 175.074 278.08 175.376 277.877L175.498 277.96C175.173 279.424 175.131 280.936 175.376 282.415H174.616C174.637 281.705 174.557 280.996 174.38 280.307C174.16 280.112 173.301 280.142 172.967 280.142ZM167.115 281.957C167.624 281.832 168.158 281.841 168.663 281.985C169.167 282.128 169.624 282.401 169.988 282.775C170.124 283 170.102 283.075 170.094 283.097C170.086 283.12 169.638 283.18 169.334 283.165C168.885 283.093 168.424 283.156 168.012 283.345C167.385 283.841 166.975 284.555 166.864 285.34C166.75 287.252 172.351 287.012 174.266 286.952C172.853 288.377 168.642 288.055 165.792 290.02C164.797 288.325 164.163 286.446 163.93 284.5C164.432 284.275 166.309 282.302 167.115 281.957ZM190.88 289.09C189.238 293.822 184.093 292.607 183.88 292.555C180.293 291.662 178.218 288.362 177.436 286.832C178.287 286.637 178.044 285.812 177.96 285.017L184.587 284.867C185.119 285.865 186.381 285.535 186.32 284.537C186.328 284.32 186.258 284.107 186.124 283.936C185.989 283.764 185.798 283.644 185.583 283.597C185.368 283.549 185.144 283.578 184.948 283.677C184.752 283.776 184.598 283.94 184.511 284.14C183.561 284.057 178.887 284.185 177.907 284.29C177.793 282.28 177.907 282.422 176.03 282.43C175.855 281.02 175.855 279.595 176.03 278.185C176.428 278.258 176.839 278.191 177.192 277.995C177.545 277.799 177.817 277.486 177.96 277.112C179.222 276.955 180.491 274.795 179.374 272.485C179.165 272.097 178.876 271.756 178.527 271.484C178.178 271.212 177.775 271.014 177.344 270.902C183.143 270.752 188.395 275.365 190.492 280.855C190.667 280.78 190.599 280.855 190.492 280.855C191.572 283.475 191.709 286.382 190.88 289.09ZM151.36 361.277C151.118 362.222 150.941 363.182 150.828 364.15C148.98 364.339 147.117 364.359 145.265 364.21C145.386 363.167 145.5 362.132 145.614 361.09L151.36 361.277ZM252.668 330.595C254.325 329.252 261.651 330.962 260.557 337.187H190.021L189.36 328.877C193.213 327.557 196.04 329.567 197.036 332.012C197.211 332.47 198.191 332.08 196.664 330.197C195.693 329.013 194.322 328.215 192.803 327.947C196.481 320.957 206.893 322.075 208.915 329.59C209.021 329.987 209.622 329.792 209.515 329.395C208.905 327.179 207.472 325.271 205.499 324.052C203.527 322.832 201.162 322.392 198.875 322.817C199.52 321.539 200.473 320.437 201.652 319.608C202.83 318.78 204.197 318.251 205.632 318.068C207.067 317.885 208.526 318.053 209.879 318.558C211.232 319.064 212.439 319.89 213.391 320.965C214.09 321.715 216.431 326.11 217.191 326.627C216.566 327.685 216.175 328.86 216.044 330.077C215.104 330.417 214.25 330.953 213.539 331.648C212.828 332.343 212.277 333.181 211.924 334.105C211.899 334.162 211.898 334.226 211.921 334.283C211.944 334.341 211.989 334.387 212.046 334.412C212.104 334.437 212.169 334.439 212.227 334.416C212.285 334.394 212.332 334.349 212.358 334.292C212.817 333.241 213.547 332.327 214.474 331.639C215.402 330.951 216.495 330.513 217.646 330.369C218.797 330.225 219.966 330.38 221.037 330.818C222.109 331.256 223.047 331.963 223.758 332.867C223.808 332.937 223.884 332.984 223.97 332.998C224.055 333.012 224.143 332.992 224.214 332.942C224.284 332.893 224.332 332.817 224.346 332.733C224.36 332.648 224.34 332.562 224.29 332.492C223.414 331.348 222.211 330.49 220.836 330.027C219.461 329.564 217.977 329.519 216.576 329.897C216.799 328.703 217.265 327.566 217.945 326.554C218.626 325.542 219.507 324.677 220.535 324.01C221.779 323.223 223.204 322.761 224.678 322.667C226.152 322.573 227.626 322.851 228.962 323.473C230.297 324.095 231.451 325.042 232.314 326.225C233.177 327.408 233.721 328.787 233.896 330.235C233.913 330.31 233.956 330.376 234.018 330.421C234.081 330.467 234.158 330.488 234.235 330.482C234.312 330.475 234.384 330.442 234.438 330.386C234.492 330.331 234.523 330.259 234.527 330.182C234.325 328.531 233.678 326.964 232.653 325.645C231.627 324.325 230.261 323.302 228.698 322.682C229.205 321.362 230.047 320.192 231.143 319.284C232.24 318.377 233.554 317.763 234.96 317.5C239.398 316.825 243.206 320.192 243.768 324.16C242.606 324.35 241.502 324.797 240.539 325.469C239.577 326.141 238.782 327.019 238.213 328.037C238.076 328.292 238.494 328.517 238.638 328.27C239.468 326.886 240.736 325.809 242.246 325.204C243.757 324.6 245.426 324.502 246.998 324.925C248.511 325.4 249.828 326.346 250.751 327.621C251.674 328.896 252.155 330.431 252.121 331.997C252.121 332.2 252.394 332.455 252.6 332.312C252.683 332.26 252.926 332.087 252.676 330.595H252.668ZM208.702 249.685C213.916 248.785 219.342 248.627 226.828 249.175C228.029 259.367 228.204 268.967 228.394 279.22C226.934 276.04 225.452 271.397 225.475 268.195C225.468 264.469 224.55 260.801 222.8 257.5C220.718 253.577 217.898 250.802 214.828 254.057C210.572 258.557 210.876 263.987 210.959 270.01C210.677 272.688 210.094 275.327 209.219 277.877C208.953 265.375 208.216 256.165 208.702 249.685ZM239.163 297.49C238.604 297.404 238.035 297.404 237.476 297.49L237.552 291.58C237.574 291.446 237.565 291.309 237.525 291.179C237.486 291.049 237.417 290.93 237.324 290.83C235.583 289.39 230.712 284.755 229.1 280.622C229.1 276.272 229.032 271.862 228.857 267.512C232.71 267.4 236.313 267.445 239.345 267.512C239.649 274.825 239.079 287.605 239.163 297.49ZM208.808 317.552C207.27 317.215 205.67 317.266 204.157 317.701C202.643 318.137 201.266 318.942 200.152 320.042C200.099 318.43 199.764 308.41 199.65 305.26L208.284 305.095C208.261 306.617 208.664 316.082 208.808 317.552ZM225.635 273.37C227.026 279.047 229.518 285.115 236.89 291.287C236.89 293.312 236.655 298.435 236.792 300.385C236.64 300.385 225.452 300.46 224.632 300.527C225.482 291.501 225.817 282.434 225.635 273.37ZM211.126 273.482C211.636 282.67 212.57 291.812 213.916 300.692C212.054 300.647 203.321 300.385 202.052 300.445C202.052 299.215 201.74 292.135 201.71 291.445C206.551 286.487 209.823 280.245 211.126 273.482ZM208.846 305.08C209.394 305.08 210.602 305.207 210.534 304.675C210.192 303.502 209.726 302.368 209.143 301.292L213.992 301.36C214.106 302.05 214.212 302.74 214.318 303.43C213.604 304.18 212.16 308.53 211.962 309.317C211.947 309.37 211.945 309.425 211.955 309.478C211.966 309.532 211.989 309.582 212.023 309.625C212.206 309.85 212.684 309.88 213.194 309.88C210.982 313.337 212.183 317.612 213.026 319.72C211.975 318.81 210.743 318.125 209.409 317.71C209.584 316.337 208.945 306.34 208.854 305.08H208.846ZM212.738 313.21C212.899 312.052 213.28 310.935 213.862 309.917C217.368 310.056 220.879 310.018 224.381 309.805C224.799 311.432 228.606 315.7 223.879 322.112C222.596 322.284 221.364 322.72 220.263 323.392C219.162 324.064 218.216 324.956 217.488 326.012C214.797 322 212.054 318.04 212.745 313.21H212.738ZM224.966 281.545C224.852 289.105 224.381 295.727 223.818 302.972L214.873 303.205C213.186 291.677 212.464 283.427 211.833 273.955C211.658 271.27 211.484 268.487 211.544 265.765C211.643 261.092 212.608 257.762 214.584 255.265C217.381 251.747 219.646 253.315 221.865 257.207C223.14 259.454 224.016 261.899 224.457 264.437C225.141 268.262 225.004 279.362 224.974 281.545H224.966ZM228.158 322.487C227.065 322.138 225.917 321.985 224.768 322.037C226.047 320.254 226.76 318.136 226.815 315.953C226.871 313.769 226.267 311.619 225.08 309.775C225.574 309.775 226.889 309.775 226.737 309.317C226.478 308.462 225.749 306.685 225.164 305.252C224.784 304.307 224.404 303.49 224.404 303.272C224.449 302.875 224.632 301.105 224.632 301.105C225.338 301.217 228.72 301.105 229.868 301.105C228.903 304.105 229.032 303.73 228.827 304.247C228.675 304.645 228.599 304.84 228.698 304.997C228.796 305.155 229.199 305.147 230.218 305.17C230.218 309.497 230.59 314.5 230.78 318.812C229.549 319.745 228.636 321.028 228.166 322.487H228.158ZM230.704 305.162L239.36 305.245C239.085 309.328 239.1 313.426 239.406 317.507C238.101 316.943 236.671 316.721 235.254 316.864C233.837 317.008 232.481 317.511 231.32 318.325C231.16 313.937 231.038 309.43 230.712 305.162H230.704ZM208.74 249.122C209.264 243.055 211.286 234.932 217.86 230.267C224.183 234.55 225.908 241.862 226.744 248.485C221.356 248.095 213.771 248.147 208.748 249.122H208.74ZM198.48 268.495C200.251 268.495 206.84 268.405 208.36 268.397C208.497 271.997 208.636 275.602 208.778 279.212C207.372 282.812 204.218 288.347 201.262 291.062C201.11 291.812 201.307 296.642 201.345 297.512C200.79 297.565 200.236 297.617 199.719 297.692C199.415 287.597 198.48 274.555 198.48 268.495Z" fill="#27272A"/>
<path d="M161.689 251.537C159.629 251.38 159.105 249.902 158.649 250.037C158.527 250.037 158.474 250.195 158.443 250.277C157.797 251.665 158.618 253.39 160.055 253.39C160.496 253.343 160.917 253.179 161.272 252.915C161.626 252.651 161.902 252.296 162.069 251.89C162.094 251.838 162.101 251.78 162.091 251.724C162.08 251.667 162.051 251.616 162.009 251.576C161.967 251.537 161.913 251.512 161.855 251.505C161.798 251.498 161.739 251.509 161.689 251.537ZM161.324 252.055C160.298 253.405 158.671 252.805 158.831 250.952C159.146 251.297 159.531 251.573 159.96 251.762C160.389 251.952 160.853 252.052 161.324 252.055ZM219 284.327C218.988 284.247 218.947 284.175 218.885 284.122C218.823 284.069 218.744 284.04 218.662 284.04C218.58 284.04 218.501 284.069 218.439 284.122C218.377 284.175 218.336 284.247 218.324 284.327C218.324 285.46 218.704 299.432 218.916 300.947C218.916 301.019 218.945 301.088 218.997 301.138C219.048 301.189 219.118 301.217 219.19 301.217C219.263 301.217 219.332 301.189 219.384 301.138C219.435 301.088 219.464 301.019 219.464 300.947C219.806 296.177 219.16 289.27 219 284.327ZM158.96 248.005C159.203 248.005 159.279 247.75 159.226 247.487C159.12 246.962 158.694 246.932 158.588 247.232C158.481 247.532 158.633 248.005 158.96 248.005ZM158.155 244.832C157.812 244.899 157.504 245.081 157.281 245.346C157.058 245.611 156.935 245.943 156.931 246.287C156.992 246.677 157.319 246.677 157.372 246.392C157.531 245.59 157.873 245.642 158.299 245.387C158.36 245.358 158.409 245.308 158.438 245.247C158.467 245.186 158.473 245.117 158.456 245.052C158.439 244.987 158.4 244.929 158.345 244.889C158.29 244.849 158.223 244.829 158.155 244.832ZM235.781 315.332C235.781 315.475 236.062 315.43 236.092 315.287C236.214 314.777 235.652 308.965 235.743 307.39C235.743 307.187 235.439 307.195 235.424 307.39C235.283 310.043 235.403 312.702 235.781 315.332ZM218.301 321.43C218.453 321.542 218.688 321.362 218.59 321.197C218.301 320.695 217.89 320.305 217.457 319.532C216.792 318.308 216.409 316.955 216.334 315.568C216.259 314.181 216.495 312.794 217.024 311.507C217.108 311.32 216.804 311.207 216.712 311.402C216.066 312.866 215.804 314.466 215.949 316.056C216.093 317.645 216.641 319.174 217.541 320.5C217.744 320.847 218 321.16 218.301 321.43Z" fill="#27272A"/>
<defs>
<linearGradient id="paint0_linear_4078_324" x1="0" y1="500" x2="400.25" y2="499.8" gradientUnits="userSpaceOnUse">
<stop stop-color="#F472B6"/>
<stop offset="1" stop-color="#8B5CF6"/>
</linearGradient>
<linearGradient id="paint1_linear_4078_324" x1="173.076" y1="131.636" x2="148.356" y2="154.995" gradientUnits="userSpaceOnUse">
<stop stop-color="#F38856"/>
<stop offset="0.23" stop-color="#F0625C"/>
<stop offset="1" stop-color="#5C3DAB"/>
</linearGradient>
<linearGradient id="paint2_linear_4078_324" x1="159.381" y1="128.552" x2="145.32" y2="142.537" gradientUnits="userSpaceOnUse">
<stop stop-color="#F67986"/>
<stop offset="1" stop-color="#8951BA"/>
</linearGradient>
<linearGradient id="paint3_linear_4078_324" x1="175.463" y1="144.72" x2="161.402" y2="158.706" gradientUnits="userSpaceOnUse">
<stop stop-color="#F67986"/>
<stop offset="1" stop-color="#8951BA"/>
</linearGradient>
<linearGradient id="paint4_linear_4078_324" x1="154.367" y1="149.831" x2="148.866" y2="154.978" gradientUnits="userSpaceOnUse">
<stop stop-color="#A267B9"/>
<stop offset="1" stop-color="#704BB4"/>
</linearGradient>
<linearGradient id="paint5_linear_4078_324" x1="171.747" y1="132.42" x2="167.992" y2="135.935" gradientUnits="userSpaceOnUse">
<stop stop-color="#F7A8A5"/>
<stop offset="0.97" stop-color="#D074C4"/>
<stop offset="1" stop-color="#CF76A9"/>
</linearGradient>
</defs>
</svg>
