<svg width="1920" height="1080" viewBox="0 0 1920 1080" fill="none" xmlns="http://www.w3.org/2000/svg">
<g id="bg-hero">
<g id="Vector 1115" filter="url(#filter0_f_518_4)">
<path id="Vector" d="M1513.31 727.651C902.225 708.824 714.028 372.64 501.506 382.21C234.353 394.239 284.13 709.573 501.506 829.722C757.734 971.344 1927.42 740.41 1513.31 727.651Z" fill="url(#paint0_linear_518_4)" fill-opacity="0.3"/>
</g>
<g id="Vector 1114" filter="url(#filter1_f_518_4)">
<path id="Vector_2" d="M1123.12 425.064C1307.43 491.644 1509.56 649.952 1578.81 643.99C1702.78 633.316 1619.89 267.083 1468.46 163.021C1326.37 65.3725 469.37 122.041 718.411 328.135C850.904 437.781 966.271 368.401 1123.12 425.064Z" fill="url(#paint1_linear_518_4)" fill-opacity="0.2"/>
</g>
<path id="bg-heroline3" d="M985.69 513.48L985.502 513.792L985.69 513.48ZM0.154277 317.471C227.718 257.353 390.063 243.802 537.5 276.583C684.939 309.364 817.505 388.486 985.502 513.792L985.871 513.169C817.854 387.847 685.202 308.659 537.631 275.848C390.059 243.037 227.606 256.612 0 316.741L0.154277 317.471ZM985.502 513.792C1268.31 724.734 1576.15 778.647 1920 699.988L1919.87 699.253C1576.16 777.882 1268.52 723.986 985.871 513.169L985.502 513.792Z" fill="url(#paint2_linear_518_4)"/>
<path id="bg-heroline2" d="M991.76 501.027L991.707 501.397L991.76 501.027ZM20.8243 773.292C206.435 614.28 349.592 527.609 496.112 490.033C642.632 452.456 792.55 463.966 991.707 501.397L991.814 500.657C792.637 463.222 642.614 451.692 495.961 489.302C349.308 526.912 206.062 613.656 20.4158 772.692L20.8243 773.292ZM991.707 501.397C1326.96 564.407 1627.56 472.696 1912.48 243.54L1912.09 242.931C1627.3 471.984 1326.88 563.63 991.814 500.657L991.707 501.397Z" fill="url(#paint3_linear_518_4)"/>
<path id="bg-heroline1" d="M1006.58 565.565L1006.59 565.94L1006.58 565.565ZM102.555 1046.16C256.547 849.409 381.649 732.935 518.689 663.853C655.729 594.769 804.74 573.065 1006.59 565.94L1006.56 565.19C804.694 572.317 655.577 594.023 518.413 663.169C381.248 732.315 256.071 848.884 102.05 1045.66L102.555 1046.16ZM1006.59 565.94C1346.38 553.945 1624.96 397.881 1863.97 110.511L1863.48 110C1624.57 397.242 1346.16 553.203 1006.56 565.19L1006.59 565.94Z" fill="url(#paint4_linear_518_4)"/>
<path id="square3" d="M497.77 681.487L490.32 678.078C489.634 677.764 488.851 678.131 488.57 678.897L485.521 687.227C485.241 687.993 485.569 688.869 486.255 689.183L493.704 692.593C494.39 692.906 495.173 692.539 495.454 691.773L498.503 683.443C498.784 682.677 498.455 681.801 497.77 681.487Z" fill="url(#paint5_linear_518_4)"/>
<path id="square3_2" d="M1579.07 441.487L1571.62 438.078C1570.93 437.764 1570.15 438.131 1569.87 438.897L1566.82 447.227C1566.54 447.993 1566.87 448.869 1567.55 449.183L1575 452.593C1575.69 452.906 1576.47 452.539 1576.75 451.773L1579.8 443.443C1580.08 442.677 1579.75 441.801 1579.07 441.487Z" fill="url(#paint6_linear_518_4)"/>
<path id="square3_3" d="M457.523 258.487L450.074 255.078C449.388 254.764 448.604 255.131 448.324 255.897L445.275 264.227C444.994 264.993 445.322 265.869 446.008 266.183L453.457 269.593C454.143 269.906 454.927 269.539 455.207 268.773L458.256 260.443C458.537 259.677 458.209 258.801 457.523 258.487Z" fill="url(#paint7_linear_518_4)"/>
</g>
<defs>
<filter id="filter0_f_518_4" x="-30.6694" y="32.0092" width="1981.86" height="1193.5" filterUnits="userSpaceOnUse" color-interpolation-filters="sRGB">
<feFlood flood-opacity="0" result="BackgroundImageFix"/>
<feBlend mode="normal" in="SourceGraphic" in2="BackgroundImageFix" result="shape"/>
<feGaussianBlur stdDeviation="175" result="effect1_foregroundBlur_518_4"/>
</filter>
<filter id="filter1_f_518_4" x="373.309" y="-183.478" width="1565.65" height="1127.63" filterUnits="userSpaceOnUse" color-interpolation-filters="sRGB">
<feFlood flood-opacity="0" result="BackgroundImageFix"/>
<feBlend mode="normal" in="SourceGraphic" in2="BackgroundImageFix" result="shape"/>
<feGaussianBlur stdDeviation="150" result="effect1_foregroundBlur_518_4"/>
</filter>
<linearGradient id="paint0_linear_518_4" x1="1601.19" y1="382.009" x2="1270.26" y2="1241.6" gradientUnits="userSpaceOnUse">
<stop stop-color="#2DC7ED"/>
<stop offset="1" stop-color="#538BF0" stop-opacity="0"/>
</linearGradient>
<linearGradient id="paint1_linear_518_4" x1="771.954" y1="822.132" x2="1199.03" y2="-157.747" gradientUnits="userSpaceOnUse">
<stop stop-color="#2DC7ED"/>
<stop offset="1" stop-color="#538BF0" stop-opacity="0"/>
</linearGradient>
<linearGradient id="paint2_linear_518_4" x1="1922.41" y1="684.047" x2="-9.33726" y2="376.176" gradientUnits="userSpaceOnUse">
<stop stop-color="#2DC7ED"/>
<stop offset="1" stop-color="#538BF0" stop-opacity="0"/>
</linearGradient>
<linearGradient id="paint3_linear_518_4" x1="1908.85" y1="227.891" x2="-5.42833" y2="656.71" gradientUnits="userSpaceOnUse">
<stop stop-color="#2DC7ED"/>
<stop offset="1" stop-color="#538BF0" stop-opacity="0"/>
</linearGradient>
<linearGradient id="paint4_linear_518_4" x1="1857.66" y1="95.9682" x2="28.8466" y2="873.033" gradientUnits="userSpaceOnUse">
<stop stop-color="#2DC7ED"/>
<stop offset="1" stop-color="#538BF0" stop-opacity="0"/>
</linearGradient>
<linearGradient id="paint5_linear_518_4" x1="499.011" y1="682.055" x2="484.582" y2="687.464" gradientUnits="userSpaceOnUse">
<stop stop-color="#2DC7ED"/>
<stop offset="1" stop-color="#538BF0" stop-opacity="0"/>
</linearGradient>
<linearGradient id="paint6_linear_518_4" x1="1580.31" y1="442.055" x2="1565.88" y2="447.464" gradientUnits="userSpaceOnUse">
<stop stop-color="#2DC7ED"/>
<stop offset="1" stop-color="#538BF0" stop-opacity="0"/>
</linearGradient>
<linearGradient id="paint7_linear_518_4" x1="458.765" y1="259.055" x2="444.335" y2="264.464" gradientUnits="userSpaceOnUse">
<stop stop-color="#2DC7ED"/>
<stop offset="1" stop-color="#538BF0" stop-opacity="0"/>
</linearGradient>
</defs>
</svg>
