<svg width="1920" height="1080" viewBox="0 0 1920 1080" fill="none" xmlns="http://www.w3.org/2000/svg">
<g id="bg-hero">
<g id="Vector 1115" filter="url(#filter0_f_518_4)">
<path id="Vector" d="M1513.31 767.554C902.225 745.835 714.028 357.996 501.506 369.035C234.353 382.913 284.13 746.699 501.506 885.309C757.734 1048.69 1927.42 782.274 1513.31 767.554Z" fill="url(#paint0_linear_518_4)" fill-opacity="0.3"/>
</g>
<g id="Vector 1114" filter="url(#filter1_f_518_4)">
<path id="Vector_2" d="M1123.12 418.475C1307.43 495.285 1509.56 677.917 1578.81 671.039C1702.78 658.725 1619.89 236.219 1468.46 116.167C1326.37 3.51531 469.37 68.8906 718.411 306.652C850.904 433.146 966.271 353.105 1123.12 418.475Z" fill="url(#paint1_linear_518_4)" fill-opacity="0.2"/>
</g>
<path id="bg-heroline3" d="M985.69 520.476L985.502 520.836L985.69 520.476ZM0.154277 294.35C227.718 224.995 390.063 209.361 537.5 247.179C684.939 284.997 817.505 376.276 985.502 520.836L985.871 520.117C817.854 375.539 685.202 284.183 537.631 246.331C390.059 208.478 227.606 224.14 0 293.508L0.154277 294.35ZM985.502 520.836C1268.31 764.189 1576.15 826.386 1920 735.641L1919.87 734.793C1576.16 825.504 1268.52 763.327 985.871 520.117L985.502 520.836Z" fill="url(#paint2_linear_518_4)"/>
<path id="bg-heroline2" d="M991.761 506.109L991.707 506.536L991.761 506.109ZM20.8243 820.208C206.435 636.765 349.592 536.776 496.112 493.427C642.632 450.075 792.55 463.354 991.707 506.536L991.814 505.683C792.637 462.496 642.614 449.194 495.961 492.583C349.308 535.972 206.062 636.044 20.4158 819.516L20.8243 820.208ZM991.707 506.536C1326.96 579.228 1627.56 473.425 1912.48 209.059L1912.09 208.356C1627.3 472.604 1326.88 578.332 991.814 505.683L991.707 506.536Z" fill="url(#paint3_linear_518_4)"/>
<path id="bg-heroline1" d="M1006.58 580.564L1006.59 580.997L1006.58 580.564ZM102.555 1135C256.547 908.022 381.649 773.651 518.689 693.954C655.729 614.256 804.74 589.216 1006.59 580.997L1006.56 580.131C804.694 588.353 655.577 613.395 518.413 693.165C381.248 772.935 256.071 907.416 102.05 1134.43L102.555 1135ZM1006.59 580.997C1346.38 567.159 1624.96 387.114 1863.97 55.5892L1863.48 55C1624.57 386.377 1346.16 566.302 1006.56 580.131L1006.59 580.997Z" fill="url(#paint4_linear_518_4)"/>
<path id="square3" d="M497.77 714.297L490.32 710.364C489.634 710.002 488.851 710.426 488.57 711.31L485.521 720.919C485.241 721.804 485.569 722.814 486.255 723.176L493.704 727.11C494.39 727.472 495.173 727.048 495.454 726.164L498.503 716.555C498.784 715.67 498.455 714.66 497.77 714.297Z" fill="url(#paint5_linear_518_4)"/>
<path id="square3_2" d="M1579.07 437.421L1571.62 433.488C1570.93 433.126 1570.15 433.549 1569.87 434.434L1566.82 444.043C1566.54 444.927 1566.87 445.938 1567.55 446.3L1575 450.233C1575.69 450.595 1576.47 450.171 1576.75 449.287L1579.8 439.678C1580.08 438.793 1579.75 437.783 1579.07 437.421Z" fill="url(#paint6_linear_518_4)"/>
<path id="square3_3" d="M457.523 226.302L450.074 222.369C449.388 222.007 448.604 222.431 448.324 223.315L445.275 232.924C444.994 233.809 445.322 234.819 446.008 235.181L453.457 239.114C454.143 239.476 454.927 239.053 455.207 238.168L458.256 228.559C458.537 227.675 458.209 226.664 457.523 226.302Z" fill="url(#paint7_linear_518_4)"/>
</g>
<defs>
<filter id="filter0_f_518_4" x="-30.6694" y="18.8042" width="1981.86" height="1269.33" filterUnits="userSpaceOnUse" color-interpolation-filters="sRGB">
<feFlood flood-opacity="0" result="BackgroundImageFix"/>
<feBlend mode="normal" in="SourceGraphic" in2="BackgroundImageFix" result="shape"/>
<feGaussianBlur stdDeviation="175" result="effect1_foregroundBlur_518_4"/>
</filter>
<filter id="filter1_f_518_4" x="373.309" y="-237.476" width="1565.65" height="1208.7" filterUnits="userSpaceOnUse" color-interpolation-filters="sRGB">
<feFlood flood-opacity="0" result="BackgroundImageFix"/>
<feBlend mode="normal" in="SourceGraphic" in2="BackgroundImageFix" result="shape"/>
<feGaussianBlur stdDeviation="150" result="effect1_foregroundBlur_518_4"/>
</filter>
<linearGradient id="paint0_linear_518_4" x1="1601.19" y1="368.804" x2="1178.79" y2="1319.85" gradientUnits="userSpaceOnUse">
<stop stop-color="#2DC7ED"/>
<stop offset="1" stop-color="#538BF0" stop-opacity="0"/>
</linearGradient>
<linearGradient id="paint1_linear_518_4" x1="771.954" y1="876.553" x2="1311.83" y2="-197.167" gradientUnits="userSpaceOnUse">
<stop stop-color="#2DC7ED"/>
<stop offset="1" stop-color="#538BF0" stop-opacity="0"/>
</linearGradient>
<linearGradient id="paint2_linear_518_4" x1="1922.41" y1="717.251" x2="-21.3086" y2="448.731" gradientUnits="userSpaceOnUse">
<stop stop-color="#2DC7ED"/>
<stop offset="1" stop-color="#538BF0" stop-opacity="0"/>
</linearGradient>
<linearGradient id="paint3_linear_518_4" x1="1908.85" y1="191.005" x2="-28.4446" y2="567.18" gradientUnits="userSpaceOnUse">
<stop stop-color="#2DC7ED"/>
<stop offset="1" stop-color="#538BF0" stop-opacity="0"/>
</linearGradient>
<linearGradient id="paint4_linear_518_4" x1="1857.66" y1="38.8122" x2="-43.4415" y2="739.006" gradientUnits="userSpaceOnUse">
<stop stop-color="#2DC7ED"/>
<stop offset="1" stop-color="#538BF0" stop-opacity="0"/>
</linearGradient>
<linearGradient id="paint5_linear_518_4" x1="499.011" y1="714.953" x2="484.126" y2="719.79" gradientUnits="userSpaceOnUse">
<stop stop-color="#2DC7ED"/>
<stop offset="1" stop-color="#538BF0" stop-opacity="0"/>
</linearGradient>
<linearGradient id="paint6_linear_518_4" x1="1580.31" y1="438.076" x2="1565.42" y2="442.913" gradientUnits="userSpaceOnUse">
<stop stop-color="#2DC7ED"/>
<stop offset="1" stop-color="#538BF0" stop-opacity="0"/>
</linearGradient>
<linearGradient id="paint7_linear_518_4" x1="458.765" y1="226.958" x2="443.879" y2="231.795" gradientUnits="userSpaceOnUse">
<stop stop-color="#2DC7ED"/>
<stop offset="1" stop-color="#538BF0" stop-opacity="0"/>
</linearGradient>
</defs>
</svg>
