<svg width="50" height="48" viewBox="0 0 50 48" fill="none" xmlns="http://www.w3.org/2000/svg">
<path d="M25.0028 2.06268e-06C11.1887 -0.00550631 0 11.0223 0 24.6335C0 35.3968 6.99922 44.5462 16.7467 47.9064C18.0594 48.2313 17.8583 47.3115 17.8583 46.6835V42.4145C10.2782 43.2903 9.97095 38.3438 9.46263 37.5176C8.43481 35.7879 6.00492 35.3473 6.73109 34.521C8.45716 33.6452 10.2167 34.7413 12.2556 37.7104C13.7303 39.8641 16.6071 39.5006 18.065 39.1425C18.3834 37.8481 19.0649 36.6913 20.0034 35.7934C12.1495 34.4053 8.8761 29.6791 8.8761 24.0606C8.8761 21.3339 9.78662 18.8276 11.5741 16.8061C10.4346 13.4735 11.6803 10.6202 11.8478 10.196C15.0933 9.90957 18.4672 12.4875 18.7298 12.6913C20.5731 12.2011 22.679 11.9422 25.0363 11.9422C27.4048 11.9422 29.5163 12.2121 31.3764 12.7078C32.0076 12.2341 35.1357 10.0197 38.1522 10.2896C38.3142 10.7138 39.5319 13.501 38.4594 16.7895C40.2692 18.8166 41.1909 21.345 41.1909 24.0771C41.1909 29.7067 37.8952 34.4384 30.019 35.8045C30.6936 36.4587 31.2293 37.2389 31.5947 38.0996C31.9601 38.9602 32.1479 39.884 32.1472 40.8171V47.014C32.1919 47.5098 32.1472 48 32.9851 48C42.8779 44.7115 50 35.496 50 24.639C50 11.0223 38.8057 2.06268e-06 25.0028 2.06268e-06Z" fill="url(#paint0_linear_520_37)"/>
<defs>
<linearGradient id="paint0_linear_520_37" x1="-2.37864" y1="24.2475" x2="51.165" y2="24.2334" gradientUnits="userSpaceOnUse">
<stop stop-color="#174086"/>
<stop offset="1" stop-color="#B5C4E9"/>
</linearGradient>
</defs>
</svg>
