<svg width="41" height="41" viewBox="0 0 41 41" fill="none" xmlns="http://www.w3.org/2000/svg">
<path d="M29.875 1.75H11.125C5.94733 1.75 1.75 5.94733 1.75 11.125V29.875C1.75 35.0527 5.94733 39.25 11.125 39.25H29.875C35.0527 39.25 39.25 35.0527 39.25 29.875V11.125C39.25 5.94733 35.0527 1.75 29.875 1.75Z" stroke="url(#paint0_linear_707_6)" stroke-width="2" stroke-linecap="round" stroke-linejoin="round"/>
<path d="M27.9999 19.3188C28.2313 20.8792 27.9648 22.4729 27.2382 23.8732C26.5117 25.2734 25.3621 26.4089 23.953 27.1182C22.5439 27.8274 20.947 28.0743 19.3895 27.8236C17.832 27.573 16.3932 26.8377 15.2778 25.7222C14.1623 24.6067 13.4269 23.1679 13.1763 21.6104C12.9257 20.0529 13.1726 18.4561 13.8818 17.047C14.591 15.6379 15.7265 14.4883 17.1268 13.7617C18.527 13.0352 20.1207 12.7686 21.6812 13C23.2729 13.236 24.7465 13.9778 25.8844 15.1156C27.0222 16.2534 27.7639 17.727 27.9999 19.3188Z" stroke="url(#paint1_linear_707_6)" stroke-width="2" stroke-linecap="round" stroke-linejoin="round"/>
<path d="M30.8125 10.1875H30.8313" stroke="url(#paint2_linear_707_6)" stroke-width="2" stroke-linecap="round" stroke-linejoin="round"/>
<defs>
<linearGradient id="paint0_linear_707_6" x1="-0.0339807" y1="20.6933" x2="40.1238" y2="20.6832" gradientUnits="userSpaceOnUse">
<stop stop-color="#174086"/>
<stop offset="1" stop-color="#B5C4E9"/>
</linearGradient>
<linearGradient id="paint1_linear_707_6" x1="12.3675" y1="20.4962" x2="28.4306" y2="20.4922" gradientUnits="userSpaceOnUse">
<stop stop-color="#174086"/>
<stop offset="1" stop-color="#B5C4E9"/>
</linearGradient>
<linearGradient id="paint2_linear_707_6" x1="30.8116" y1="10.6927" x2="30.8317" y2="10.6927" gradientUnits="userSpaceOnUse">
<stop stop-color="#174086"/>
<stop offset="1" stop-color="#B5C4E9"/>
</linearGradient>
</defs>
</svg>
