<svg width="47" height="45" viewBox="0 0 47 45" fill="none" xmlns="http://www.w3.org/2000/svg">
<path d="M45.12 0H1.88C0.840125 0 0 0.804375 0 1.8V43.2C0 44.1956 0.840125 45 1.88 45H45.12C46.1599 45 47 44.1956 47 43.2V1.8C47 0.804375 46.1599 0 45.12 0ZM13.9414 38.3456H6.96775V16.8694H13.9414V38.3456ZM10.4575 13.9331C9.65807 13.9331 8.87659 13.7062 8.21188 13.2809C7.54718 12.8557 7.02911 12.2513 6.72318 11.5441C6.41725 10.837 6.3372 10.0588 6.49317 9.30813C6.64913 8.55742 7.03409 7.86785 7.59937 7.32662C8.16466 6.78539 8.88487 6.41681 9.66895 6.26749C10.453 6.11816 11.2657 6.1948 12.0043 6.48771C12.7429 6.78062 13.3742 7.27665 13.8183 7.91307C14.2624 8.54949 14.4995 9.29771 14.4995 10.0631C14.4936 12.2006 12.6841 13.9331 10.4575 13.9331ZM40.0499 38.3456H33.0821V27.9C33.0821 25.4081 33.0351 22.2075 29.4573 22.2075C25.8324 22.2075 25.2743 24.9187 25.2743 27.72V38.3456H18.3124V16.8694H24.9981V19.8056H25.0921C26.0204 18.1181 28.294 16.335 31.6898 16.335C38.7515 16.335 40.0499 20.7844 40.0499 26.5669V38.3456Z" fill="url(#paint0_linear_520_39)"/>
<defs>
<linearGradient id="paint0_linear_520_39" x1="-2.23592" y1="22.732" x2="48.0951" y2="22.7187" gradientUnits="userSpaceOnUse">
<stop stop-color="#174086"/>
<stop offset="1" stop-color="#B5C4E9"/>
</linearGradient>
</defs>
</svg>
