<svg width="1200" height="615" viewBox="0 0 1200 615" fill="none" xmlns="http://www.w3.org/2000/svg">
<rect width="1200" height="615" fill="url(#paint0_linear_301_298)"/>
<path d="M440.671 276.9C442.899 276.9 444.717 277.632 446.124 279.097C447.59 280.562 448.323 282.466 448.323 284.81V331.827C448.323 334.229 447.62 336.162 446.212 337.627C444.805 339.092 442.987 339.824 440.759 339.824C438.12 339.824 436.127 338.945 434.778 337.188L408.04 303.88V331.827C408.04 334.229 407.366 336.162 406.017 337.627C404.669 339.092 402.851 339.824 400.564 339.824C398.336 339.824 396.518 339.092 395.111 337.627C393.704 336.162 393 334.229 393 331.827V284.81C393 282.466 393.704 280.562 395.111 279.097C396.518 277.632 398.336 276.9 400.564 276.9C403.085 276.9 405.05 277.779 406.457 279.537L433.195 312.756V284.81C433.195 282.407 433.869 280.503 435.218 279.097C436.625 277.632 438.443 276.9 440.671 276.9Z" fill="url(#paint1_linear_301_298)"/>
<path d="M494.309 295.18C496.713 295.18 498.619 295.824 500.026 297.113C501.433 298.402 502.137 300.16 502.137 302.386V332.794C502.137 334.844 501.404 336.543 499.938 337.891C498.472 339.18 496.566 339.824 494.221 339.824C492.11 339.824 490.38 339.268 489.032 338.154C487.683 336.983 486.979 335.43 486.921 333.497C485.572 335.606 483.842 337.217 481.731 338.33C479.679 339.443 477.304 340 474.607 340C469.037 340 464.903 338.477 462.205 335.43C459.508 332.325 458.16 327.638 458.16 321.369V302.386C458.16 300.16 458.863 298.402 460.27 297.113C461.678 295.824 463.583 295.18 465.988 295.18C468.392 295.18 470.297 295.824 471.705 297.113C473.112 298.402 473.815 300.16 473.815 302.386V321.72C473.815 325.939 475.633 328.048 479.269 328.048C481.379 328.048 483.109 327.286 484.458 325.763C485.807 324.24 486.481 322.248 486.481 319.787V302.386C486.481 300.16 487.184 298.402 488.592 297.113C489.999 295.824 491.905 295.18 494.309 295.18Z" fill="url(#paint2_linear_301_298)"/>
<path d="M589.804 327.169C591.329 328.634 592.091 330.333 592.091 332.266C592.091 334.2 591.358 335.899 589.892 337.364C588.426 338.828 586.697 339.561 584.703 339.561C582.533 339.561 580.54 338.623 578.722 336.748L553.655 311.087V331.827C553.655 334.288 552.922 336.25 551.456 337.715C549.99 339.121 547.997 339.824 545.475 339.824C543.013 339.824 541.048 339.121 539.582 337.715C538.175 336.25 537.472 334.288 537.472 331.827V284.81C537.472 282.407 538.175 280.503 539.582 279.097C541.048 277.632 543.013 276.9 545.475 276.9C547.997 276.9 549.99 277.632 551.456 279.097C552.922 280.503 553.655 282.407 553.655 284.81V304.144L578.37 279.273C579.895 277.691 581.625 276.9 583.56 276.9C585.495 276.9 587.195 277.632 588.661 279.097C590.127 280.503 590.86 282.173 590.86 284.107C590.86 286.04 590.01 287.827 588.309 289.467L570.278 307.132L589.804 327.169Z" fill="url(#paint3_linear_301_298)"/>
<path d="M632.582 325.411C633.93 325.411 635.015 325.939 635.836 326.993C636.715 328.048 637.155 329.425 637.155 331.124C637.155 333.467 636.012 335.254 633.725 336.485C631.731 337.481 629.357 338.33 626.601 339.033C623.903 339.678 621.411 340 619.125 340C614.316 340 610.124 339.092 606.547 337.276C602.97 335.459 600.214 332.852 598.28 329.454C596.345 326.056 595.377 322.072 595.377 317.502C595.377 313.166 596.286 309.3 598.104 305.901C599.98 302.445 602.56 299.779 605.844 297.904C609.186 295.971 612.939 295.004 617.102 295.004C621.148 295.004 624.695 295.883 627.744 297.64C630.793 299.398 633.139 301.888 634.78 305.111C636.481 308.333 637.331 312.112 637.331 316.447C637.331 317.795 637.009 318.85 636.364 319.611C635.777 320.314 634.898 320.666 633.725 320.666H610.505C610.916 323.478 611.824 325.499 613.232 326.73C614.639 327.96 616.721 328.575 619.476 328.575C620.942 328.575 622.291 328.429 623.522 328.136C624.754 327.784 626.132 327.316 627.656 326.73C628.536 326.378 629.386 326.085 630.207 325.851C631.086 325.558 631.878 325.411 632.582 325.411ZM617.541 305.55C615.489 305.55 613.847 306.224 612.616 307.571C611.385 308.86 610.652 310.764 610.417 313.284H624.226C623.874 308.128 621.646 305.55 617.541 305.55Z" fill="url(#paint4_linear_301_298)"/>
<path d="M673.582 295.004C678.742 295.004 682.583 296.557 685.104 299.662C687.625 302.708 688.886 307.366 688.886 313.635V332.618C688.886 334.844 688.182 336.602 686.775 337.891C685.368 339.18 683.462 339.824 681.058 339.824C678.654 339.824 676.748 339.18 675.341 337.891C673.934 336.602 673.23 334.844 673.23 332.618V314.338C673.23 311.76 672.761 309.885 671.823 308.714C670.943 307.542 669.595 306.956 667.777 306.956C665.432 306.956 663.555 307.718 662.148 309.241C660.799 310.706 660.125 312.698 660.125 315.217V332.618C660.125 334.844 659.421 336.602 658.014 337.891C656.607 339.18 654.701 339.824 652.297 339.824C649.893 339.824 647.987 339.18 646.58 337.891C645.173 336.602 644.469 334.844 644.469 332.618V302.21C644.469 300.16 645.202 298.49 646.668 297.201C648.134 295.854 650.04 295.18 652.385 295.18C654.613 295.18 656.372 295.795 657.662 297.025C659.011 298.256 659.685 299.867 659.685 301.859C661.21 299.632 663.174 297.933 665.578 296.762C667.982 295.59 670.65 295.004 673.582 295.004Z" fill="url(#paint5_linear_301_298)"/>
<path d="M730.53 327.784C735.22 327.784 737.566 329.688 737.566 333.497C737.566 337.364 735.22 339.297 730.53 339.297H702.824C700.772 339.297 699.101 338.652 697.811 337.364C696.521 336.075 695.876 334.522 695.876 332.706C695.876 330.772 696.609 328.985 698.074 327.345L716.545 307.571H702.384C697.693 307.571 695.348 305.638 695.348 301.771C695.348 297.963 697.693 296.059 702.384 296.059H729.034C731.087 296.059 732.758 296.703 734.048 297.992C735.338 299.281 735.983 300.834 735.983 302.65C735.983 304.525 735.25 306.282 733.784 307.923L715.226 327.784H730.53Z" fill="url(#paint6_linear_301_298)"/>
<path d="M751.16 339.824C748.931 339.824 747.055 339.238 745.531 338.067C744.065 336.836 743.332 335.02 743.332 332.618V302.386C743.332 299.984 744.065 298.197 745.531 297.025C747.055 295.795 748.931 295.18 751.16 295.18C753.388 295.18 755.235 295.795 756.701 297.025C758.225 298.197 758.988 299.984 758.988 302.386V332.618C758.988 335.02 758.225 336.836 756.701 338.067C755.235 339.238 753.388 339.824 751.16 339.824ZM751.16 289.028C748.521 289.028 746.41 288.354 744.827 287.007C743.302 285.601 742.54 283.755 742.54 281.47C742.54 279.185 743.302 277.369 744.827 276.021C746.41 274.674 748.521 274 751.16 274C753.74 274 755.821 274.674 757.404 276.021C758.988 277.369 759.779 279.185 759.779 281.47C759.779 283.755 758.988 285.601 757.404 287.007C755.88 288.354 753.798 289.028 751.16 289.028Z" fill="url(#paint7_linear_301_298)"/>
<path d="M803.25 325.411C804.599 325.411 805.684 325.939 806.505 326.993C807.384 328.048 807.824 329.425 807.824 331.124C807.824 333.467 806.681 335.254 804.394 336.485C802.4 337.481 800.025 338.33 797.27 339.033C794.572 339.678 792.08 340 789.793 340C784.985 340 780.793 339.092 777.216 337.276C773.639 335.459 770.883 332.852 768.948 329.454C767.013 326.056 766.046 322.072 766.046 317.502C766.046 313.166 766.955 309.3 768.772 305.901C770.649 302.445 773.229 299.779 776.512 297.904C779.855 295.971 783.607 295.004 787.771 295.004C791.816 295.004 795.364 295.883 798.413 297.64C801.462 299.398 803.808 301.888 805.449 305.111C807.15 308.333 808 312.112 808 316.447C808 317.795 807.678 318.85 807.033 319.611C806.446 320.314 805.567 320.666 804.394 320.666H781.174C781.584 323.478 782.493 325.499 783.901 326.73C785.308 327.96 787.389 328.575 790.145 328.575C791.611 328.575 792.96 328.429 794.191 328.136C795.423 327.784 796.801 327.316 798.325 326.73C799.205 326.378 800.055 326.085 800.876 325.851C801.755 325.558 802.547 325.411 803.25 325.411ZM788.21 305.55C786.158 305.55 784.516 306.224 783.285 307.571C782.054 308.86 781.321 310.764 781.086 313.284H794.895C794.543 308.128 792.315 305.55 788.21 305.55Z" fill="url(#paint8_linear_301_298)"/>
<defs>
<linearGradient id="paint0_linear_301_298" x1="157.188" y1="233.757" x2="1195.15" y2="568.45" gradientUnits="userSpaceOnUse">
<stop stop-color="#212529"/>
<stop offset="0.463542" stop-color="#4F3159"/>
<stop offset="1" stop-color="#FD377E"/>
</linearGradient>
<linearGradient id="paint1_linear_301_298" x1="512.705" y1="339.297" x2="514.396" y2="339.297" gradientUnits="userSpaceOnUse">
<stop stop-color="#FD377E"/>
<stop offset="1" stop-color="white"/>
</linearGradient>
<linearGradient id="paint2_linear_301_298" x1="512.705" y1="339.297" x2="514.396" y2="339.297" gradientUnits="userSpaceOnUse">
<stop stop-color="#FD377E"/>
<stop offset="1" stop-color="white"/>
</linearGradient>
<linearGradient id="paint3_linear_301_298" x1="512.705" y1="339.297" x2="514.396" y2="339.297" gradientUnits="userSpaceOnUse">
<stop stop-color="#FD377E"/>
<stop offset="1" stop-color="white"/>
</linearGradient>
<linearGradient id="paint4_linear_301_298" x1="512.705" y1="339.297" x2="514.396" y2="339.297" gradientUnits="userSpaceOnUse">
<stop stop-color="#FD377E"/>
<stop offset="1" stop-color="white"/>
</linearGradient>
<linearGradient id="paint5_linear_301_298" x1="512.705" y1="339.297" x2="514.396" y2="339.297" gradientUnits="userSpaceOnUse">
<stop stop-color="#FD377E"/>
<stop offset="1" stop-color="white"/>
</linearGradient>
<linearGradient id="paint6_linear_301_298" x1="512.705" y1="339.297" x2="514.396" y2="339.297" gradientUnits="userSpaceOnUse">
<stop stop-color="#FD377E"/>
<stop offset="1" stop-color="white"/>
</linearGradient>
<linearGradient id="paint7_linear_301_298" x1="512.705" y1="339.297" x2="514.396" y2="339.297" gradientUnits="userSpaceOnUse">
<stop stop-color="#FD377E"/>
<stop offset="1" stop-color="white"/>
</linearGradient>
<linearGradient id="paint8_linear_301_298" x1="512.705" y1="339.297" x2="514.396" y2="339.297" gradientUnits="userSpaceOnUse">
<stop stop-color="#FD377E"/>
<stop offset="1" stop-color="white"/>
</linearGradient>
</defs>
</svg>
